<svg width="429.00000000000006" height="85.00921658986177" viewBox="0 0 434 86" class="css-1j8o68f">
    <g id="SvgjsG4134" featurekey="rootContainer" transform="matrix(1,0,0,1,0,0)" fill="#ffffff">
        <rect xmlns="http://www.w3.org/2000/svg" width="434" height="86" rx="10" ry="10"></rect>
    </g>
    <g id="SvgjsG4135" featurekey="nameLeftFeature-0"
       transform="matrix(1.7674937605948822,0,0,1.7674937605948822,17.87900740300547,20.748535851427)" fill="#000000">
        <path d="M9 20 l-2.86 -4.58 l-1.72 0 l0 4.58 l-3.22 0 l0 -14 l4.98 0 c3.14 0 5.22 1.9 5.22 4.82 c0 1.86 -0.88 3.26 -2.36 3.98 l3.36 5.2 l-3.4 0 z M4.42 8.96 l0 3.72 l1.56 0 c1.3 0 2.2 -0.46 2.2 -1.86 c0 -1.38 -0.9 -1.86 -2.2 -1.86 l-1.56 0 z M25.36 20 l-0.98 -2.32 l-6.58 0 l-0.98 2.32 l-3.42 0 l6.22 -14 l2.94 0 l6.22 14 l-3.42 0 z M18.92 15.059999999999999 l4.36 0 l-2.18 -5.16 z M39.4 6 l3.22 0 l0 14 l-2.46 0 l-6.56 -8.14 l0 8.14 l-3.22 0 l0 -14 l2.5 0 l6.52 8.14 l0 -8.14 z M50.22 6 c3.96 0 7.1 3.12 7.1 6.9 c0 3.98 -3.14 7.1 -7.1 7.1 l-5.2 0 l0 -14 l5.2 0 z M50.2 16.96 c2.54 0 3.82 -1.84 3.82 -4.06 c0 -2.02 -1.28 -3.86 -3.82 -3.86 l-1.96 0 l0 7.92 l1.96 0 z M66.30000000000001 5.800000000000001 c3.96 0 7.28 2.94 7.28 7.2 s-3.32 7.2 -7.28 7.2 s-7.28 -2.94 -7.28 -7.2 s3.32 -7.2 7.28 -7.2 z M66.30000000000001 17.18 c2.26 0 3.94 -1.76 3.94 -4.18 s-1.68 -4.18 -3.94 -4.18 s-3.92 1.76 -3.92 4.18 s1.66 4.18 3.92 4.18 z M90.8 6 l0 14 l-3.32 0 l0 -6.76 l-2.86 6.76 l-2.78 0 l-2.82 -6.72 l0 6.72 l-3.32 0 l0 -14 l3.18 0 l4.38 9.72 l4.36 -9.72 l3.18 0 z"></path>
    </g>
    <g id="SvgjsG4136" featurekey="inlineSymbolFeature-0"
       transform="matrix(0.461591760992911,0,0,0.461591760992911,198,20)" fill="#000000">
        <path xmlns="http://www.w3.org/2000/svg" fill="#000000"
              d="M82.922,21.242l-1.845,0.292l1.842-0.299c-0.185-0.819-0.499-0.981-0.631-1.142  c-0.556-0.439-0.726-0.444-1.132-0.644c-2.512-1.073-10.468-3.768-18.18-7.621c-4.876-2.44-9.714-5.29-13.44-7.55  c-1.867-1.126-3.456-2.113-4.653-2.831c-0.604-0.36-1.101-0.652-1.517-0.875c-0.358-0.17-0.497-0.297-0.883-0.421  C42.245,0.048,41.989,0,41.728,0c-0.259,0-0.515,0.048-0.756,0.149c-0.385,0.125-0.522,0.251-0.88,0.421  c-2.747,1.497-11.038,6.972-19.607,11.256c-4.531,2.263-9.194,4.146-12.743,5.515c-1.778,0.685-3.265,1.238-4.346,1.667  c-0.545,0.21-0.979,0.388-1.334,0.548c-0.178,0.081-0.335,0.155-0.528,0.269c-0.094,0.061-0.198,0.124-0.36,0.269  c-0.137,0.16-0.457,0.325-0.634,1.147C0.167,23.525,0,25.849,0,28.21c0.025,16.183,7.936,33.688,16.901,47.296  c4.493,6.799,9.26,12.61,13.53,16.784c2.144,2.082,4.153,3.765,5.995,4.97c1.857,1.177,3.503,1.964,5.277,1.991h0.025h0.033  c3.465-0.147,6.989-2.823,11.353-6.951c12.778-12.524,30.255-39.802,30.347-64.05C83.46,25.876,83.284,23.535,82.922,21.242z   M63.517,73.459c-4.346,6.594-8.976,12.233-13.012,16.16c-3.95,3.966-7.677,6.043-8.745,5.891v0.011h-0.058V95.51  c-0.447,0.033-1.708-0.373-3.237-1.393C32.98,90.594,24.085,80.623,16.82,68.322C9.508,56.01,3.722,41.289,3.739,28.21  c0-1.859,0.117-3.681,0.355-5.462c2.504-1.022,10.462-3.78,18.062-7.58c5.028-2.517,9.94-5.412,13.707-7.689  c1.88-1.142,3.476-2.128,4.638-2.821c0.497-0.302,0.916-0.548,1.23-0.723c2.521,1.403,10.975,6.936,19.572,11.234  c4.701,2.352,9.471,4.28,13.062,5.667c1.799,0.69,3.304,1.25,4.336,1.654c0.248,0.094,0.469,0.185,0.657,0.259  c0.243,1.796,0.354,3.63,0.354,5.502C79.746,43.201,72.221,60.277,63.517,73.459z M59.344,18.04  c-8.55-4.27-16.825-9.917-17.596-10.019V8.014c-0.005,0-0.015,0-0.015,0c-0.002,0-0.015,0-0.015,0v0.007  c-0.776,0.102-9.049,5.749-17.596,10.019c-7.976,3.988-16.282,6.573-16.343,6.938c-1.827,11.416,2.494,24.682,8.666,36.329  l43.15-43.143C59.511,18.124,59.428,18.086,59.344,18.04z M72.597,23.677L23.441,72.835C30.9,83.67,38.759,91.24,41.707,91.24  c0.008,0,0.015,0,0.025,0c0.008,0,0.015,0,0.023,0c6.608,0,38.366-38.589,33.928-66.262C75.661,24.844,74.484,24.393,72.597,23.677z  "></path>
    </g>
    <g id="SvgjsG4137" featurekey="nameRightFeature-0"
       transform="matrix(1.7504754401714686,0,0,1.7504754401714686,244.3965771646421,20.917261898652043)"
       fill="#000000">
        <path d="M12.18 6 c3.14 0 5.22 1.9 5.22 4.82 c0 2.88 -2.08 4.6 -5.22 4.6 l-1.76 0 l0 4.58 l-3.22 0 l0 -14 l4.98 0 z M11.98 12.68 c1.3 0 2.2 -0.46 2.2 -1.86 c0 -1.38 -0.9 -1.86 -2.2 -1.86 l-1.56 0 l0 3.72 l1.56 0 z M27.1 20 l-2.86 -4.58 l-1.72 0 l0 4.58 l-3.22 0 l0 -14 l4.98 0 c3.14 0 5.22 1.9 5.22 4.82 c0 1.86 -0.88 3.26 -2.36 3.98 l3.36 5.2 l-3.4 0 z M22.520000000000003 8.96 l0 3.72 l1.56 0 c1.3 0 2.2 -0.46 2.2 -1.86 c0 -1.38 -0.9 -1.86 -2.2 -1.86 l-1.56 0 z M39.28 5.800000000000001 c3.96 0 7.28 2.94 7.28 7.2 s-3.32 7.2 -7.28 7.2 s-7.28 -2.94 -7.28 -7.2 s3.32 -7.2 7.28 -7.2 z M39.28 17.18 c2.26 0 3.94 -1.76 3.94 -4.18 s-1.68 -4.18 -3.94 -4.18 s-3.92 1.76 -3.92 4.18 s1.66 4.18 3.92 4.18 z M57.68000000000001 8.94 l-5.68 0 l0 2.66 l4.66 0 l0 2.74 l-4.66 0 l0 5.66 l-3.32 0 l0 -14 l9 0 l0 2.94 z M62.800000000000004 6 l0 14 l-3.22 0 l0 -14 l3.22 0 z M68.42 17.04 l5.32 0 l0 2.96 l-8.54 0 l0 -14 l3.22 0 l0 11.04 z M78.96000000000001 17.04 l5.74 0 l0 2.96 l-6.14 0 l-2.82 0 l0 -14 l3.22 0 l5.56 0 l0 2.96 l-5.56 0 l0 2.54 l4.16 0 l0 2.9 l-4.16 0 l0 2.64 z M91.46000000000001 5.76 c2.52 0 4.06 1.56 4.82 2.88 l-2.36 1.42 c-0.78 -1 -1.46 -1.46 -2.46 -1.46 c-0.86 0 -1.5 0.5 -1.5 1.2 c0 0.72 0.4 1.08 1.4 1.42 l0.94 0.34 c3.26 1.14 4.38 2.58 4.38 4.44 c0 2.92 -2.76 4.3 -5.16 4.3 c-2.56 0 -4.52 -1.52 -5.22 -3.46 l2.46 -1.32 c0.5 0.9 1.24 1.88 2.76 1.88 c1.04 0 1.82 -0.42 1.82 -1.36 c0 -0.86 -0.48 -1.26 -1.98 -1.82 l-0.8 -0.28 c-2.06 -0.74 -3.8 -1.72 -3.8 -4.28 c0 -2.28 2.16 -3.9 4.7 -3.9 z"></path>
    </g>
</svg>
